<svg width="16" height="16" viewBox="0 0 16 16" fill="none" xmlns="http://www.w3.org/2000/svg">
<path d="M2.66912 12.9323L2.76059 13.5548C2.78533 13.7231 2.66492 13.8746 2.49849 13.8977L2.49837 13.8977C2.48388 13.8997 2.4694 13.9007 2.45499 13.9007C2.30609 13.9007 2.17238 13.7941 2.14988 13.6412L2.14988 13.6412L1.90316 11.9622L1.90315 11.9621C1.88773 11.857 1.92953 11.7525 2.01187 11.6857C2.01188 11.6857 2.01189 11.6857 2.01189 11.6857L2.0749 11.7633C2.13036 11.7183 2.2059 11.7045 2.27442 11.7267L2.66912 12.9323ZM2.66912 12.9323C3.23674 13.5084 3.90489 13.992 4.63444 14.3503C5.64753 14.8478 6.74083 15.1 7.88318 15.1C9.80977 15.1 11.6221 14.3704 12.9853 13.0452L12.9196 12.9777L12.9853 13.0452C14.3485 11.7199 15.1 9.95669 15.1 8.08116C15.1 7.02848 14.8661 6.01575 14.4048 5.07187M2.66912 12.9323L14.4048 5.07187M14.4048 5.07187C14.3308 4.92038 14.1472 4.85875 13.9953 4.92886L13.9953 4.92886C13.8418 4.99969 13.7737 5.18058 13.8485 5.33362L13.8485 5.33364C14.2696 6.1953 14.483 7.11946 14.483 8.08116C14.483 9.79353 13.7973 11.4035 12.551 12.6152C11.3045 13.827 9.64715 14.4946 7.88318 14.4946C6.83693 14.4946 5.83705 14.2639 4.91059 13.8089C4.25494 13.4869 3.65301 13.0544 3.13962 12.5395L14.4048 5.07187Z" fill="black" stroke="black" stroke-width="0.2"/>
<path d="M2.00475 11.0711C2.1581 11.0003 2.2263 10.8194 2.15153 10.6664L2.15153 10.6663C1.73044 9.80468 1.517 8.88053 1.517 7.91883C1.517 6.20646 2.20265 4.59654 3.44902 3.38483C4.69549 2.17303 6.35282 1.5054 8.11679 1.5054C9.92692 1.5054 11.6215 2.21133 12.8613 3.46082L13.3306 3.06571M2.00475 11.0711L1.96282 10.9803L2.00478 11.0711C2.00477 11.0711 2.00476 11.0711 2.00475 11.0711ZM2.00475 11.0711C1.96238 11.0907 1.91757 11.1 1.8735 11.1C1.75987 11.1 1.64874 11.0378 1.59517 10.9281C1.13395 9.98424 0.9 8.97151 0.9 7.91883C0.9 6.04329 1.65153 4.2801 3.01473 2.95476L3.01474 2.95476C4.3779 1.62956 6.19021 0.9 8.11679 0.9C10.1073 0.9 11.9721 1.68166 13.3306 3.06571M13.3306 3.06571L13.2394 2.4452C13.2147 2.2769 13.3351 2.12541 13.5015 2.10229L13.5016 2.10228C13.6672 2.07932 13.8255 2.19108 13.8501 2.35879L13.7512 2.37333L13.8501 2.35879L14.0968 4.03783L14.0968 4.03785C14.1123 4.14297 14.0705 4.24748 13.9881 4.31431C13.9881 4.31431 13.9881 4.31431 13.9881 4.31431L13.3306 3.06571Z" fill="black" stroke="black" stroke-width="0.2"/>
</svg>
