<svg width="232" height="53" viewBox="0 0 232 53" fill="none" xmlns="http://www.w3.org/2000/svg">
<path d="M37.2976 26.008H47.9536V46.456C45.2176 48.52 42.0496 50.104 38.4496 51.208C34.8496 52.312 31.2256 52.864 27.5776 52.864C22.3456 52.864 17.6416 51.76 13.4656 49.552C9.28963 47.296 6.00163 44.2 3.60163 40.264C1.24963 36.28 0.0736251 31.792 0.0736251 26.8C0.0736251 21.808 1.24963 17.344 3.60163 13.408C6.00163 9.424 9.31363 6.328 13.5376 4.12C17.7616 1.864 22.5136 0.735999 27.7936 0.735999C32.2096 0.735999 36.2176 1.48 39.8176 2.968C43.4176 4.456 46.4416 6.616 48.8896 9.448L41.4016 16.36C37.8016 12.568 33.4576 10.672 28.3696 10.672C25.1536 10.672 22.2976 11.344 19.8016 12.688C17.3056 14.032 15.3616 15.928 13.9696 18.376C12.5776 20.824 11.8816 23.632 11.8816 26.8C11.8816 29.92 12.5776 32.704 13.9696 35.152C15.3616 37.6 17.2816 39.52 19.7296 40.912C22.2256 42.256 25.0576 42.928 28.2256 42.928C31.5856 42.928 34.6096 42.208 37.2976 40.768V26.008ZM81.1805 52.864C73.9805 52.864 68.3645 50.872 64.3325 46.888C60.3485 42.904 58.3565 37.216 58.3565 29.824V1.6H70.0205V29.392C70.0205 38.416 73.7645 42.928 81.2525 42.928C84.9005 42.928 87.6845 41.848 89.6045 39.688C91.5245 37.48 92.4845 34.048 92.4845 29.392V1.6H104.005V29.824C104.005 37.216 101.989 42.904 97.9565 46.888C93.9725 50.872 88.3805 52.864 81.1805 52.864ZM139.651 52.864C134.515 52.864 129.859 51.76 125.683 49.552C121.555 47.296 118.291 44.2 115.891 40.264C113.539 36.28 112.363 31.792 112.363 26.8C112.363 21.808 113.539 17.344 115.891 13.408C118.291 9.424 121.555 6.328 125.683 4.12C129.859 1.864 134.539 0.735999 139.723 0.735999C144.091 0.735999 148.027 1.504 151.531 3.04C155.083 4.576 158.059 6.784 160.459 9.664L152.971 16.576C149.563 12.64 145.339 10.672 140.299 10.672C137.179 10.672 134.395 11.368 131.947 12.76C129.499 14.104 127.579 16 126.187 18.448C124.843 20.896 124.171 23.68 124.171 26.8C124.171 29.92 124.843 32.704 126.187 35.152C127.579 37.6 129.499 39.52 131.947 40.912C134.395 42.256 137.179 42.928 140.299 42.928C145.339 42.928 149.563 40.936 152.971 36.952L160.459 43.864C158.059 46.792 155.083 49.024 151.531 50.56C147.979 52.096 144.019 52.864 139.651 52.864ZM191.401 52.864C186.265 52.864 181.609 51.76 177.433 49.552C173.305 47.296 170.041 44.2 167.641 40.264C165.289 36.28 164.113 31.792 164.113 26.8C164.113 21.808 165.289 17.344 167.641 13.408C170.041 9.424 173.305 6.328 177.433 4.12C181.609 1.864 186.289 0.735999 191.473 0.735999C195.841 0.735999 199.777 1.504 203.281 3.04C206.833 4.576 209.809 6.784 212.209 9.664L204.721 16.576C201.313 12.64 197.089 10.672 192.049 10.672C188.929 10.672 186.145 11.368 183.697 12.76C181.249 14.104 179.329 16 177.937 18.448C176.593 20.896 175.921 23.68 175.921 26.8C175.921 29.92 176.593 32.704 177.937 35.152C179.329 37.6 181.249 39.52 183.697 40.912C186.145 42.256 188.929 42.928 192.049 42.928C197.089 42.928 201.313 40.936 204.721 36.952L212.209 43.864C209.809 46.792 206.833 49.024 203.281 50.56C199.729 52.096 195.769 52.864 191.401 52.864ZM220.085 1.6H231.749V52H220.085V1.6Z" fill="white"/>
</svg>
