<svg width="16" height="16" viewBox="0 0 16 16" fill="none" xmlns="http://www.w3.org/2000/svg">
<path fill-rule="evenodd" clip-rule="evenodd" d="M11.1187 1.0845C11.3756 0.984214 11.6535 0.973027 11.9416 1.05183C12.2745 1.14287 12.5305 1.32853 12.7062 1.58797C12.8771 1.84033 12.9595 2.14355 12.988 2.45884C13.0444 3.08353 12.8959 3.84113 12.6681 4.58688C12.2592 5.92603 11.5581 7.34151 11.0979 8.13512C11.9676 8.87729 12.618 10.0061 12.7065 11.5799C12.7533 12.4119 12.5544 13.0654 12.1872 13.5676C11.8234 14.0652 11.3153 14.3856 10.7904 14.593C9.76019 15.0001 8.58747 15 8.0704 15H8.0476C7.52982 15 6.30514 15.0001 5.22848 14.5951C4.68149 14.3893 4.14915 14.0708 3.76924 13.5733C3.38455 13.0695 3.17891 12.4118 3.23863 11.5748C3.34774 10.0455 4.01548 8.91209 4.91501 8.15731C4.45765 7.37253 3.75362 5.95639 3.33987 4.61293C3.10876 3.8625 2.95673 3.09921 3.01102 2.46983C3.03842 2.15226 3.12006 1.84669 3.29088 1.59234C3.46657 1.33073 3.72354 1.14342 4.05837 1.05183C4.34754 0.972732 4.62646 0.984317 4.88399 1.08556C5.13661 1.18487 5.34489 1.36093 5.51619 1.5735C5.85308 1.99153 6.08823 2.60246 6.25787 3.26885C6.56073 4.45861 6.68439 5.95019 6.72003 7.20117C7.16957 7.07107 7.62437 7.00704 8.05849 7.00704C8.446 7.00704 8.86224 7.0622 9.28064 7.17803C9.31729 5.92697 9.44211 4.43934 9.74584 3.25434C9.91571 2.59159 10.1509 1.98428 10.4875 1.56892C10.6587 1.35767 10.8667 1.18291 11.1187 1.0845ZM10.4135 3.4213C10.0912 4.67858 9.97685 6.33506 9.95937 7.65141L9.95285 8.1429L9.4895 7.96366C8.99897 7.77391 8.50072 7.68729 8.05849 7.68729C7.56432 7.68729 7.02983 7.78583 6.51386 7.99095L6.04709 8.17651L6.04099 7.67954C6.02484 6.36375 5.91196 4.69961 5.58998 3.43473C5.4277 2.79721 5.22158 2.30017 4.97739 1.99716C4.85816 1.84921 4.74095 1.76148 4.62933 1.71759C4.52262 1.67564 4.39854 1.66463 4.24216 1.70741C4.06337 1.75632 3.94658 1.84656 3.86476 1.96838C3.77808 2.09746 3.71846 2.28118 3.69721 2.52758C3.6542 3.02615 3.77532 3.68953 3.99873 4.41495C4.44292 5.85726 5.24616 7.4046 5.65736 8.05923L5.8244 8.32515L5.57 8.51166C4.70553 9.14547 4.02986 10.1613 3.9256 11.6227C3.87612 12.3162 4.0463 12.8065 4.31905 13.1636C4.59658 13.5271 5.00329 13.7825 5.47356 13.9594C6.42383 14.3168 7.5368 14.3197 8.05849 14.3197C8.58071 14.3197 9.63598 14.3165 10.5347 13.9614C10.9782 13.7862 11.3633 13.5327 11.6289 13.1693C11.8912 12.8105 12.0582 12.3162 12.0189 11.6176C11.9337 10.1024 11.2696 9.10035 10.4431 8.48702L10.1923 8.3009L10.3566 8.03693C10.7748 7.36514 11.5714 5.82278 12.0088 4.39043C12.2288 3.66991 12.3466 3.01268 12.3021 2.51927C12.28 2.27551 12.2202 2.09386 12.1338 1.96619C12.0521 1.8456 11.9357 1.75606 11.7578 1.70741C11.602 1.66478 11.4783 1.67559 11.3719 1.71712C11.2607 1.76054 11.144 1.84742 11.0252 1.99402C10.7818 2.29437 10.5759 2.78759 10.4135 3.4213Z" fill="black"/>
</svg>
