<svg width="16" height="16" viewBox="0 0 16 16" fill="none" xmlns="http://www.w3.org/2000/svg">
<g clip-path="url(#clip0_2155_566)">
<rect x="-0.285847" y="0.0765925" width="0.418509" height="10.0442" rx="0.209255" transform="matrix(-0.866025 -0.5 -0.5 0.866025 8.2588 6.2189)" fill="#C4C4C4" stroke="black" stroke-width="0.418509"/>
<path fill-rule="evenodd" clip-rule="evenodd" d="M11.3141 1.04385L10.8502 1.2019C9.94574 1.51007 8.50919 2.13001 7.10872 2.99741C5.71611 3.85994 4.31163 4.99611 3.5279 6.35356C1.96165 9.06638 2.97162 11.093 3.78677 11.8094L4.33931 11.1807C3.81868 10.7231 2.88946 9.1334 4.25278 6.77207C4.93384 5.59244 6.19947 4.54513 7.54945 3.709C8.66492 3.01811 9.80552 2.49119 10.647 2.16664C10.8466 3.70502 10.9923 6.65197 10.3502 9.21703C10.014 10.5599 9.21645 11.3106 8.35366 11.7191C7.47414 12.1355 6.52052 12.1968 5.9248 12.1258L5.82567 12.9569C6.54862 13.0431 7.66552 12.9709 8.71182 12.4756C9.77485 11.9723 10.7584 11.033 11.1621 9.4203C11.9214 6.38743 11.6351 2.90063 11.3976 1.52677L11.3141 1.04385Z" fill="black"/>
</g>
<defs>
<clipPath id="clip0_2155_566">
<rect width="16" height="16" fill="white"/>
</clipPath>
</defs>
</svg>
